<svg class="img-fluid" id="outputsvg" xmlns="http://www.w3.org/2000/svg" style="transform: matrix(1, 0, 0, 1, 0, 0); transform-origin: 50% 50% 0px; cursor: move; max-height: 311.86px; transition: none;" width="500" height="500" viewBox="0 0 5000 5000"><g id="l47b4c1kdWgxA5sJ90EEsjs" fill="rgb(218,209,194)" style="transform: none;"><g style="transform: none;"><path id="p15XG2UEDn" d="M2280 4445 c-119 -14 -188 -27 -275 -50 -266 -71 -546 -216 -760 -394 -125 -105 -302 -306 -400 -456 -102 -156 -206 -403 -249 -590 -32 -139 -36 -162 -47 -316 -12 -158 -3 -365 21 -479 58 -270 123 -445 238 -640 53 -90 136 -209 192 -275 32 -39 206 -213 245 -245 205 -172 453 -302 740 -389 17 -5 55 -14 85 -21 30 -6 71 -16 90 -20 19 -5 108 -14 197 -21 275 -20 505 9 783 100 79 26 270 117 365 174 70 41 193 128 250 177 40 33 213 207 245 245 152 183 287 424 356 635 36 111 41 130 54 190 6 30 16 71 20 90 5 19 14 106 21 193 15 203 1 397 -41 577 -21 88 -57 208 -83 275 -37 92 -172 350 -197 375 -3 3 -22 29 -42 59 -105 153 -296 344 -449 449 -30 20 -56 39 -59 42 -14 14 -138 84 -236 133 -114 57 -267 113 -389 141 -38 10 -79 19 -90 22 -11 2 -78 11 -150 19 -153 17 -290 17 -435 0z m-1140 -830 l0 -105 120 0 120 0 0 -375 c0 -252 -3 -375 -10 -375 -13 0 -46 21 -118 73 -59 42 -92 44 -112 6 -9 -16 -8 -26 5 -45 8 -13 19 -24 23 -24 5 0 17 -8 28 -17 10 -10 48 -38 84 -62 94 -65 549 -385 565 -398 6 -5 73 -52 150 -106 77 -53 223 -155 325 -227 102 -72 241 -170 310 -218 169 -117 441 -309 463 -327 9 -8 19 -15 22 -15 3 0 48 -30 101 -68 246 -172 320 -222 334 -222 41 1 66 56 38 83 -7 7 -53 39 -101 72 -49 33 -93 68 -98 77 -6 10 -8 158 -7 350 l3 333 240 0 240 0 3 -29 c2 -16 -2 -32 -10 -37 -7 -5 -104 -9 -215 -9 l-203 0 0 -105 0 -105 363 0 c200 0 366 -3 369 -6 15 -14 -143 -274 -235 -389 -52 -64 -218 -230 -282 -282 -198 -159 -466 -294 -694 -347 -302 -71 -474 -79 -756 -35 -507 80 -948 366 -1243 805 -178 264 -266 522 -303 887 -30 292 50 678 202 972 39 75 165 272 192 299 7 7 23 27 36 44 42 56 51 44 51 -73z m810 -145 l0 -40 -215 0 -215 0 0 -105 0 -105 407 -2 c386 -3 408 -4 411 -21 2 -10 1 -29 -2 -43 l-6 -24 -210 0 -210 0 0 -105 0 -105 400 0 400 0 0 -40 0 -40 -205 0 -205 0 0 -110 0 -110 401 0 400 0 -3 -37 -3 -38 -212 -3 -213 -2 0 -105 0 -105 403 -2 402 -3 3 -37 3 -38 -210 0 -211 0 0 -110 0 -110 115 0 115 0 0 -303 c0 -167 -3 -306 -6 -310 -6 -5 -120 65 -134 83 -3 3 -92 66 -199 140 -107 74 -215 150 -240 168 -25 18 -91 64 -146 101 -90 62 -165 115 -220 155 -11 8 -92 65 -180 126 -88 61 -167 116 -175 123 -8 7 -64 47 -125 89 -60 43 -173 122 -250 176 l-140 98 -3 417 -2 417 240 0 240 0 0 -40z"></path></g></g></svg>